<svg id="logosandtypes_com" xmlns="http://www.w3.org/2000/svg" viewBox="0 0 150 150"><style>.st1{fill:#ec121f}</style><path d="M0 0h150v150H0V0z" fill="none" id="Layer_3"/><g id="Scotiabank"><path class="st1" d="M79 18.3h-7.7c-23.6 0-40.3 22.9-33.1 45.4l1.9 6 1.2-4.4c3.3-12 12.5-21.5 24.4-25.1 2.3-.7 4.7-1.1 7.1-1.1h34.4L125.6 19 79 18.3zM71.8 130.2h7.7c23.6 0 40.3-22.9 33.1-45.4l-1.9-6-1.2 4.4c-3.3 12-12.5 21.5-24.4 25.1-2.3.7-4.7 1.1-7.1 1.1H43.5l-18.4 20.2 46.7.6z"/><circle class="st1" cx="75.3" cy="74.2" r="28.3"/></g></svg>